<svg width="229" height="18" viewBox="0 0 229 18" fill="none" xmlns="http://www.w3.org/2000/svg">
<path d="M10.0093 14.6593L14.633 4.38914H19.1956V17.5H16.3724V7.04627L11.5301 17.5H8.4622L3.61992 7.08997V17.5H0.796717V4.38914H5.3593L10.0093 14.6593ZM25.1489 12.0808L24.6769 15.0352H33.2602V17.5H21.4517L22.4743 10.9446L21.4517 4.38914H33.1728V6.85398H24.6769L25.1489 9.80829H32.7183V12.0808H25.1489ZM43.3428 9.50237C44.3626 9.50237 45.225 9.66844 45.93 10.0006C46.6351 10.3327 47.1654 10.7989 47.5208 11.3991C47.8763 11.9993 48.054 12.7043 48.054 13.5143C48.054 14.3068 47.8617 15.006 47.4771 15.612C47.0984 16.2122 46.5535 16.6784 45.8426 17.0105C45.1376 17.3368 44.3043 17.5 43.3428 17.5H35.0917L36.1144 10.6386L35.0917 4.38914H47.0051V6.72287H38.3083L38.7628 9.50237H43.3428ZM43.0019 15.2537C43.6488 15.2537 44.1586 15.0934 44.5316 14.7729C44.9103 14.4525 45.0997 14.0096 45.0997 13.4444C45.0997 12.885 44.9103 12.445 44.5316 12.1245C44.1528 11.7982 43.64 11.6351 42.9932 11.6351H38.7803L38.2296 15.2537H43.0019ZM64.3448 4.38914V17.5H61.373V7.02005H54.9924C55.1031 8.32531 55.1584 9.54608 55.1584 10.6824C55.1584 12.3489 55.0128 13.6978 54.7214 14.7292C54.4301 15.7606 53.9756 16.5211 53.3579 17.0105C52.7402 17.5 51.9332 17.7447 50.9368 17.7447C50.523 17.7447 50.118 17.701 49.7218 17.6136C49.3314 17.5262 48.9789 17.4009 48.6642 17.2378V14.7555C49.1595 14.9536 49.6257 15.0526 50.0627 15.0526C50.6046 15.0526 51.0416 14.8895 51.3738 14.5632C51.7117 14.231 51.9594 13.7153 52.1167 13.0161C52.2799 12.311 52.3615 11.3903 52.3615 10.2541C52.3615 8.65745 52.2362 6.70248 51.9856 4.38914H64.3448ZM70.3029 12.0808L69.8309 15.0352H78.4141V17.5H66.6056L67.6282 10.9446L66.6056 4.38914H78.3267V6.85398H69.8309L70.3029 9.80829H77.8722V12.0808H70.3029ZM90.9004 10.6124C91.8677 10.8222 92.5961 11.2126 93.0856 11.7837C93.575 12.3489 93.8198 13.0423 93.8198 13.8639C93.8198 14.5806 93.6537 15.2129 93.3216 15.7606C92.9894 16.3025 92.497 16.7279 91.8444 17.0367C91.1918 17.3456 90.3964 17.5 89.4582 17.5H80.2457L81.2683 10.7698L80.2457 4.38914H89.1261C89.9302 4.38914 90.6178 4.51733 91.1889 4.77372C91.7599 5.03011 92.194 5.39722 92.4912 5.87504C92.7942 6.35285 92.9457 6.92099 92.9457 7.57945C92.9457 8.22042 92.7797 8.81187 92.4475 9.35378C92.1154 9.88987 91.5997 10.3094 90.9004 10.6124ZM89.939 8.00773C89.939 7.58236 89.7904 7.23856 89.4932 6.97635C89.196 6.71413 88.7794 6.58302 88.2433 6.58302H83.436L83.9342 9.70341H88.1209C88.657 9.70341 89.094 9.5519 89.432 9.2489C89.77 8.94589 89.939 8.53217 89.939 8.00773ZM88.8377 15.3061C89.4612 15.3061 89.9448 15.1604 90.2886 14.8691C90.6382 14.5719 90.813 14.1553 90.813 13.6192C90.813 13.0656 90.612 12.6315 90.2099 12.3168C89.8079 11.9964 89.231 11.8361 88.4793 11.8361H83.9429L83.4185 15.3061H88.8377ZM98.7011 14.5894L106.096 4.38914H109.968V17.5H107.057V7.15116L99.5664 17.5H95.7993V4.38914H98.7011V14.5894ZM115.568 14.5894L122.962 4.38914H126.834V17.5H123.924V7.15116L116.433 17.5H112.666V4.38914H115.568V14.5894ZM117.901 0.517062C118.175 1.35616 118.767 1.7757 119.676 1.7757C120.13 1.7757 120.506 1.67082 120.803 1.46104C121.1 1.24544 121.316 0.930783 121.45 0.517062H123.819C123.592 1.51349 123.117 2.25644 122.394 2.74591C121.677 3.23538 120.771 3.48012 119.676 3.48012C118.58 3.48012 117.671 3.23538 116.949 2.74591C116.232 2.25644 115.76 1.51349 115.533 0.517062H117.901ZM134.022 17.5V4.38914H147.413V17.5H144.458V7.02005H136.985V17.5H134.022ZM157.253 4.38914C158.279 4.38914 159.17 4.56978 159.928 4.93105C160.691 5.29233 161.277 5.8022 161.685 6.46065C162.093 7.11328 162.297 7.86789 162.297 8.72446C162.297 9.58104 162.093 10.3356 161.685 10.9883C161.277 11.6409 160.691 12.1479 159.928 12.5091C159.165 12.8704 158.273 13.051 157.253 13.051H153.067V17.5H150.103V4.38914H157.253ZM157.096 10.6037C157.784 10.6037 158.32 10.4376 158.704 10.1055C159.095 9.77333 159.29 9.31299 159.29 8.72446C159.29 8.13593 159.095 7.67559 158.704 7.34345C158.32 7.00548 157.784 6.8365 157.096 6.8365H153.067V10.6037H157.096ZM171.044 17.7622C169.54 17.7622 168.209 17.4796 167.049 16.9144C165.89 16.3433 164.989 15.5421 164.348 14.5107C163.713 13.4793 163.396 12.2906 163.396 10.9446C163.396 9.59852 163.713 8.4098 164.348 7.37841C164.989 6.34703 165.89 5.54872 167.049 4.9835C168.209 4.41245 169.54 4.12692 171.044 4.12692C172.553 4.12692 173.884 4.41245 175.038 4.9835C176.198 5.54872 177.098 6.34703 177.739 7.37841C178.38 8.4098 178.7 9.59852 178.7 10.9446C178.7 12.2906 178.38 13.4793 177.739 14.5107C177.098 15.5421 176.198 16.3433 175.038 16.9144C173.884 17.4796 172.553 17.7622 171.044 17.7622ZM171.044 15.1138C171.988 15.1138 172.809 14.9448 173.509 14.6069C174.214 14.2689 174.753 13.7882 175.126 13.1647C175.504 12.5354 175.694 11.7953 175.694 10.9446C175.694 10.0938 175.504 9.3567 175.126 8.7332C174.753 8.10388 174.214 7.62024 173.509 7.28227C172.809 6.9443 171.988 6.77531 171.044 6.77531C170.1 6.77531 169.278 6.9443 168.579 7.28227C167.88 7.62024 167.341 8.10388 166.962 8.7332C166.583 9.3567 166.394 10.0938 166.394 10.9446C166.394 11.7953 166.583 12.5354 166.962 13.1647C167.341 13.7882 167.88 14.2689 168.579 14.6069C169.278 14.9448 170.1 15.1138 171.044 15.1138ZM194.941 12.1595C194.813 13.2666 194.426 14.2456 193.779 15.0963C193.132 15.9413 192.278 16.5968 191.218 17.063C190.157 17.5291 188.957 17.7622 187.617 17.7622C186.131 17.7622 184.82 17.4796 183.684 16.9144C182.553 16.3433 181.676 15.5421 181.053 14.5107C180.429 13.4793 180.117 12.2906 180.117 10.9446C180.117 9.59852 180.429 8.4098 181.053 7.37841C181.676 6.34703 182.553 5.54872 183.684 4.9835C184.82 4.41245 186.131 4.12692 187.617 4.12692C188.957 4.12692 190.157 4.36 191.218 4.82617C192.278 5.29233 193.132 5.95079 193.779 6.80154C194.426 7.64646 194.813 8.62249 194.941 9.72963H191.961C191.839 9.11196 191.585 8.57879 191.2 8.1301C190.822 7.67559 190.326 7.32888 189.715 7.08997C189.103 6.84524 188.401 6.72287 187.608 6.72287C186.693 6.72287 185.898 6.89477 185.222 7.23856C184.552 7.58236 184.033 8.07183 183.666 8.70698C183.305 9.34213 183.124 10.088 183.124 10.9446C183.124 11.8011 183.305 12.547 183.666 13.1822C184.033 13.8173 184.552 14.3068 185.222 14.6506C185.898 14.9944 186.693 15.1663 187.608 15.1663C188.808 15.1663 189.787 14.904 190.545 14.3796C191.308 13.8552 191.78 13.1151 191.961 12.1595H194.941ZM195.276 4.38914H208.666V7.01131H203.457V17.5H200.485V7.01131H195.276V4.38914ZM210.314 17.5V4.38914H213.277V17.5H210.314ZM223.115 4.38914C224.14 4.38914 225.032 4.56978 225.789 4.93105C226.553 5.29233 227.138 5.8022 227.546 6.46065C227.954 7.11328 228.158 7.86789 228.158 8.72446C228.158 9.58104 227.954 10.3356 227.546 10.9883C227.138 11.6409 226.553 12.1479 225.789 12.5091C225.026 12.8704 224.135 13.051 223.115 13.051H218.928V17.5H215.965V4.38914H223.115ZM222.958 10.6037C223.645 10.6037 224.181 10.4376 224.566 10.1055C224.956 9.77333 225.151 9.31299 225.151 8.72446C225.151 8.13593 224.956 7.67559 224.566 7.34345C224.181 7.00548 223.645 6.8365 222.958 6.8365H218.928V10.6037H222.958Z" fill="black"/>
</svg>
